<svg xmlns="http://www.w3.org/2000/svg" viewBox="0 0 110.14 25"><path d="M10.69,1.27a.74.74,0,0,0,.69-.46,1.4,1.4,0,0,1,.68.19,33.45,33.45,0,0,0,.19,4.4,1.83,1.83,0,0,1-1,.06c-.37-1.67-1.12-3.75-4.75-3.75-2.69,0-4.58,2.67-4.58,5.5S3.92,13,7.29,13A4.56,4.56,0,0,0,12,9.61a1.71,1.71,0,0,1,.92.1,9.06,9.06,0,0,1-1.21,3.46,5.81,5.81,0,0,0-.88.25,16.75,16.75,0,0,1-4.2.6A7.12,7.12,0,0,1,2,12.27,6.19,6.19,0,0,1,0,7.6,6.67,6.67,0,0,1,6.61.85a13.1,13.1,0,0,1,1.5.09,20.72,20.72,0,0,0,2.58.33"></path><path d="M17.25,11.48c0,1.44.09,1.4,1,1.46l.54,0a1.25,1.25,0,0,1,0,.83c-1.06,0-1.6-.06-2.23-.06s-1.39,0-2.44.06A1.19,1.19,0,0,1,14,13l.54,0c1.05-.08,1.15,0,1.15-1.46V2.33c0-1.27-.13-1.35-.86-1.35h-.41a1.19,1.19,0,0,1,0-.79C14.92.15,16.17,0,16.5,0s.58.17.75,1V7.35c.52-.31,1.59-.81,2.17-1.08a1.75,1.75,0,0,1,.69-.17,2.29,2.29,0,0,1,2.06,1.19,1.77,1.77,0,0,1,.19.86l0,3.33c0,1.44.1,1.37,1.16,1.46L24,13a1.31,1.31,0,0,1,0,.83c-1.06,0-1.79-.06-2.43-.06s-.59,0-1.65.06a1.25,1.25,0,0,1,0-.83l.27,0c.56-.08.64,0,.64-1.46V9c0-.77-.06-1-.27-1.29a1.64,1.64,0,0,0-1.35-.52L17.5,8a.53.53,0,0,0-.25.42Z"></path><path d="M30.25,8.52A2.61,2.61,0,0,0,30.17,8a1.47,1.47,0,0,0-1.65-1.12,2.35,2.35,0,0,0-1.71,2.33s0,.08.13.08,2-.46,3.31-.75m1.21-.23.19,0c.27,0,.31,0,.31.23s0,.46-.19.48c-.81.15-3.93.85-5.06,1.12.1,1.13.67,2.76,2.52,2.76a2.39,2.39,0,0,0,2.06-1.19c.17,0,.5.17.51.35a3.75,3.75,0,0,1-3.42,2,3.51,3.51,0,0,1-3.25-3.66A3.91,3.91,0,0,1,29.19,6.1a2.16,2.16,0,0,1,1.61.57,3,3,0,0,1,.66,1.62"></path><path d="M36.69,11.48c0,1.44.09,1.37,1.15,1.46l.54,0a1.19,1.19,0,0,1,0,.83c-1.06,0-1.79-.06-2.42-.06s-1.39,0-2.44.06a1.19,1.19,0,0,1,0-.83l.54,0c1.05-.09,1.15,0,1.15-1.46V8c0-.54,0-.58-.4-.58H34.3a1.32,1.32,0,0,1,0-.65l.65-.35A.45.45,0,0,0,35.13,6V5.29a7.22,7.22,0,0,1,.64-3.16A4,4,0,0,1,39.42,0a2.08,2.08,0,0,1,1.52.65.32.32,0,0,1,0,.27,2.2,2.2,0,0,1-.45.41c-.26.21-.63.11-1-.08A2.06,2.06,0,0,0,38.4.88a1.57,1.57,0,0,0-1.08.56c-.52.6-.61,1-.63,4.21,0,.54,0,.73.34.73h2a1,1,0,0,1-.13,1.08H37c-.32,0-.34,0-.34.58Z"></path><path d="M50.28,8.1a2.46,2.46,0,0,0,1.43-1,.2.2,0,0,1,.19-.12.7.7,0,0,1,.23.1l0,.84a2.77,2.77,0,0,1-1.39,1,2.43,2.43,0,0,1,.12.77C50.9,12,48.53,14,45.76,14s-5.09-1.81-5.09-4.21a4,4,0,0,1,2.44-3.73,2.59,2.59,0,0,1-.38-1.37,2.77,2.77,0,0,1,2.88-2.65,3.52,3.52,0,0,1,1.54.31.84.84,0,0,1,.25.57c0,.16-.17.6-.5.66a.3.3,0,0,1-.31-.14,1.27,1.27,0,0,0-1.15-.67A1.43,1.43,0,0,0,44,4.27a1.45,1.45,0,0,0,.75,1.23,7.28,7.28,0,0,1,1.48-.14,1,1,0,0,1,.74.95.45.45,0,0,1-.27.4.54.54,0,0,1-.25.06,3.6,3.6,0,0,0-1-.16,2.71,2.71,0,0,0-2.94,3,3.7,3.7,0,0,0,7.37-.08,1.11,1.11,0,0,0-1.12-1.19c-.52,0-.92.63-1,1.07a.31.31,0,0,1-.23.25c-.31.1-.58-.17-.71-.44a.71.71,0,0,1,0-.61,2.48,2.48,0,0,1,1.84-1,2.26,2.26,0,0,1,1.5.52"></path><path d="M58.94,13c1.69,0,3.25-1.06,3.25-2.69,0-2.23-2.52-2.67-3.27-2.67H57v4.17c0,.65,0,.88.25,1a5.36,5.36,0,0,0,1.44.17Zm-2-6.1h1.28a3,3,0,0,0,1.93-.5,2.17,2.17,0,0,0,1-2.05,2.27,2.27,0,0,0-2.5-2.39,5,5,0,0,0-1.44.16c-.22.13-.25.36-.25,1Zm7,3.6A2.72,2.72,0,0,1,62.36,13a7.6,7.6,0,0,1-3.52.77s-1.77-.06-2.67-.06c-.62,0-2.58.06-2.58.06a1.25,1.25,0,0,1,0-.83l.54,0c1.06-.08,1.15,0,1.15-1.46V3.38c0-1.44-.09-1.38-1.15-1.46l-.54,0a1.22,1.22,0,0,1,0-.82c1.08,0,2,.06,2.58.06h1.5a8,8,0,0,1,3.69.67,2.51,2.51,0,0,1,1.56,2.46,2.6,2.6,0,0,1-2.27,2.88c1.25.27,3.32,1,3.32,3.33"></path><path d="M66.76,8.65c0-1.27-.13-1.34-.86-1.34h-.41a1.13,1.13,0,0,1,0-.79c.53,0,1.78-.19,2.11-.19s.58.17.75,1v.61c.12-.09,1.67-1.34,2.06-1.56a2.1,2.1,0,0,1,1-.28,1.11,1.11,0,0,1,1.09,1.09,1,1,0,0,1-1.07,1.1A.82.82,0,0,1,70.86,8c-.19-.17-.37-.75-.73-.6a11.41,11.41,0,0,0-1.56,1.2.64.64,0,0,0-.25.42v2.46c0,1.44.1,1.38,1.15,1.46L70,13a1.19,1.19,0,0,1,0,.83c-1,0-1.78-.06-2.42-.06s-1.38,0-2.44.06a1.19,1.19,0,0,1,0-.83l.54,0c1.06-.08,1.15,0,1.15-1.46Z"></path><path d="M78.67,8.52A2.61,2.61,0,0,0,78.59,8a1.49,1.49,0,0,0-1.66-1.12,2.35,2.35,0,0,0-1.71,2.33s0,.08.14.08,2-.46,3.31-.75m1.21-.23.19,0c.27,0,.31,0,.31.23s0,.46-.2.48c-.8.15-3.92.85-5.05,1.12.09,1.13.67,2.76,2.52,2.76a2.36,2.36,0,0,0,2-1.19.53.53,0,0,1,.52.35,3.75,3.75,0,0,1-3.42,2,3.51,3.51,0,0,1-3.25-3.66A3.91,3.91,0,0,1,77.61,6.1a2.16,2.16,0,0,1,1.61.57,3,3,0,0,1,.66,1.62"></path><path d="M89.41,7.15l-.27,0c-.53.08-.8.16-.57,1s1.25,3,1.52,3.56c0,.08,0,.12.11,0,.66-1.21,1.69-3.83,1.79-4.1s-.19-.4-.6-.44l-.4,0a1.16,1.16,0,0,1,0-.82c1.06,0,1,0,1.65,0s1.87,0,1.87,0a1.35,1.35,0,0,1,0,.82l-.54,0c-.71.06-.87.06-1.08.46s-1.69,3.6-2.92,6.1a.76.76,0,0,1-.69,0c-.16-.37-1.1-2.81-1.66-4.21-.52,1.07-1.07,2.34-2,4.21a.76.76,0,0,1-.69,0L82.88,8.5c-.37-.94-.39-1.21-1.47-1.31l-.51,0a1.22,1.22,0,0,1,0-.82s1.81,0,2.43,0,.57,0,1.65,0a1.16,1.16,0,0,1,0,.82l-.25,0c-.54.1-.85.17-.6,1s1.25,3,1.52,3.56c0,.08.06.12.12,0,.65-1.21,1.46-3.27,1.46-3.27l-.48-.94c-.18-.31-.33-.33-.67-.35l-.26,0a1.28,1.28,0,0,1,0-.82c1.06,0,1,0,1.66,0s.73,0,1.79,0a1.22,1.22,0,0,1,0,.82"></path><path d="M99.86,8.52A2.61,2.61,0,0,0,99.78,8a1.49,1.49,0,0,0-1.66-1.12,2.35,2.35,0,0,0-1.71,2.33s0,.08.14.08,2-.46,3.31-.75m1.21-.23.19,0c.27,0,.31,0,.31.23s0,.46-.2.48c-.8.15-3.92.85-5.05,1.12.09,1.13.67,2.76,2.52,2.76a2.36,2.36,0,0,0,2-1.19.53.53,0,0,1,.52.35A3.75,3.75,0,0,1,98,14a3.51,3.51,0,0,1-3.25-3.66A3.91,3.91,0,0,1,98.8,6.1a2.16,2.16,0,0,1,1.61.57,3,3,0,0,1,.66,1.62"></path><path d="M104.39,8.65c0-1.27-.13-1.34-.86-1.34h-.41a1.13,1.13,0,0,1,0-.79c.53,0,1.78-.19,2.11-.19s.58.17.75,1v.61c.12-.09,1.67-1.34,2.06-1.56a2.1,2.1,0,0,1,1-.28,1.11,1.11,0,0,1,1.09,1.09,1,1,0,0,1-1.07,1.1.82.82,0,0,1-.58-.29c-.19-.17-.37-.75-.73-.6a11.41,11.41,0,0,0-1.56,1.2A.64.64,0,0,0,106,9v2.46c0,1.44.1,1.38,1.15,1.46l.54,0a1.19,1.19,0,0,1,0,.83c-1,0-1.78-.06-2.42-.06s-1.38,0-2.44.06a1.25,1.25,0,0,1,0-.83l.54,0c1.06-.08,1.15,0,1.15-1.46Z"></path><path d="M24.49,22.69a2,2,0,0,1,2.15-2.3c.85,0,1.48.34,1.63,1.11l-.69.2a.88.88,0,0,0-.95-.64c-.75,0-1.32.5-1.32,1.6s.53,1.67,1.48,1.67a2.21,2.21,0,0,0,1.31-.41l.12.61a2.52,2.52,0,0,1-1.58.47c-1.34,0-2.15-.76-2.15-2.31"></path><path d="M34.12,22.65c0-1.08-.47-1.59-1.29-1.59s-1.27.5-1.27,1.61.48,1.66,1.26,1.66,1.3-.58,1.3-1.68m-3.39,0c0-1.52.8-2.28,2.1-2.28A2,2,0,0,1,35,22.63,2.09,2.09,0,0,1,32.81,25c-1.26,0-2.08-.8-2.08-2.33"></path><polygon points="40.6 24.27 40.6 24.92 38.03 24.92 38.03 20.46 38.84 20.46 38.84 24.27 40.6 24.27"></polygon><polygon points="46.8 24.27 46.8 24.92 44.23 24.92 44.23 20.46 45.04 20.46 45.04 24.27 46.8 24.27"></polygon><polygon points="51.18 21.12 51.18 22.61 52.58 22.61 52.58 23.23 51.18 23.23 51.18 24.26 53.05 24.26 53.05 24.92 50.37 24.92 50.37 20.46 53.05 20.46 53.05 21.12 51.18 21.12"></polygon><path d="M56.29,22.69a2,2,0,0,1,2.15-2.3c.85,0,1.48.34,1.63,1.11l-.69.2a.87.87,0,0,0-1-.64c-.75,0-1.32.5-1.32,1.6s.53,1.67,1.48,1.67a2.21,2.21,0,0,0,1.31-.41l.13.61a2.57,2.57,0,0,1-1.59.47c-1.34,0-2.15-.76-2.15-2.31"></path><polygon points="67.03 21.12 65.59 21.12 65.59 24.92 64.78 24.92 64.78 21.12 63.34 21.12 63.34 20.46 67.03 20.46 67.03 21.12"></polygon><rect x="70.44" y="20.46" width="0.81" height="4.46"></rect><path d="M78.31,22.65c0-1.08-.47-1.59-1.28-1.59s-1.27.5-1.27,1.61.48,1.66,1.26,1.66,1.29-.58,1.29-1.68m-3.38,0c0-1.52.8-2.28,2.1-2.28a2,2,0,0,1,2.12,2.24A2.08,2.08,0,0,1,77,25c-1.26,0-2.08-.8-2.08-2.33"></path><polygon points="85.66 20.46 85.66 24.92 85.32 24.92 82.68 22.02 82.68 24.92 81.9 24.92 81.9 20.46 82.24 20.46 84.89 23.36 84.89 20.46 85.66 20.46"></polygon></svg>
